<svg width="124" height="34" viewBox="0 0 124 34" fill="none" xmlns="http://www.w3.org/2000/svg">
    <g clip-path="url(#clip0_678_37629)">
        <path d="M10.1919 1.31376H13.5184V13.4637H19.7321V16.5564H10.1919V1.31376Z" fill="white"/>
        <path d="M37.9964 1.31376H41.5112L45.2771 12.5485H45.3085L49.0743 1.31376H52.3695L47.0659 16.5564H43.2686L37.9964 1.31376Z" fill="white"/>
        <path d="M88.4275 1.31376H92.2875L98.0304 16.5564H94.4529L93.2604 13.3059H87.1722L85.9797 16.5564H82.6218L88.4275 1.31376ZM90.1849 4.91139L88.1137 10.4656H92.2561L90.1849 4.91139Z" fill="white"/>
        <path d="M28.8643 1.09285C24.2197 1.09285 20.9873 4.40646 20.9873 8.95084C20.9873 13.4952 24.2197 16.8088 28.8643 16.8088C33.5088 16.8088 36.7412 13.5268 36.7412 8.95084C36.7412 4.3749 33.5088 1.09285 28.8643 1.09285ZM28.8643 13.5583C26.0399 13.5583 24.408 11.5386 24.408 8.91928C24.408 6.29995 26.0399 4.28023 28.8643 4.28023C31.6573 4.28023 33.3205 6.29995 33.3205 8.91928C33.3205 11.5386 31.6573 13.5583 28.8643 13.5583Z" fill="white"/>
        <path d="M58.7086 13.4637V4.40646H65.8638V1.31376H55.3821V16.5564H66.0521V13.4637H58.7086Z" fill="white"/>
        <path d="M64.5457 6.99423H61.4389V10.7497H64.5457V6.99423Z" fill="white"/>
        <path d="M78.9187 5.03762C78.6677 4.84827 77.5065 3.9962 75.4039 3.9962C73.9604 3.9962 72.9875 4.50113 72.9875 5.47944C72.9875 6.42618 73.7721 6.77332 74.9646 7.05735C75.247 7.12046 76.3768 7.40449 76.722 7.4676C79.4208 8.13033 80.8958 9.55044 80.8958 12.1067C80.8958 15.0416 78.448 16.9351 75.0273 16.9351C71.5753 16.9351 69.7238 15.5149 69.253 15.1362L70.8221 12.4538C71.0418 12.6431 72.454 13.8739 74.8077 13.8739C76.7534 13.8739 77.5379 13.1481 77.5379 12.2644C77.5379 11.3493 76.6906 10.8443 75.4039 10.5603C75.0273 10.4656 73.929 10.2132 73.5838 10.1185C71.0418 9.48733 69.6296 8.16188 69.6296 5.70034C69.661 3.30192 71.1987 0.935059 75.1529 0.935059C78.4166 0.935059 79.9543 1.97648 80.5192 2.38674L78.9187 5.03762Z" fill="white"/>
        <path d="M110.615 12.012C109.861 12.9903 108.669 13.5583 107.131 13.5583C104.307 13.5583 102.675 11.5386 102.675 8.91928C102.675 6.29995 104.338 4.31178 107.163 4.31178C108.669 4.31178 109.861 4.91139 110.615 5.85814L113.062 3.55439C111.682 2.00804 109.61 1.09285 107.163 1.09285C102.518 1.09285 99.2857 4.3749 99.2857 8.95084C99.2857 13.5268 102.518 16.8088 107.163 16.8088C109.642 16.8088 111.682 15.8621 113.094 14.3157L110.615 12.012Z" fill="white"/>
    </g>
    <path d="M5.17 30.9651H5.9L3.32 23.9351H2.58L0 30.9651H0.73L1.53 28.7251H4.36L5.17 30.9651ZM2.96 24.6651C2.96 24.6651 3.11 25.2451 3.23 25.5751L4.15 28.1251H1.73L2.67 25.5751C2.79 25.2451 2.94 24.6651 2.94 24.6651H2.96Z" fill="white"/>
    <path d="M6.80211 29.7751C6.80211 30.8751 7.54211 31.0051 7.96211 31.0051C8.09211 31.0051 8.21211 30.9851 8.21211 30.9851V30.3751C8.21211 30.3751 8.13211 30.3851 8.04211 30.3851C7.78211 30.3851 7.48211 30.2851 7.48211 29.6251V23.9351H6.80211V29.7751Z" fill="white"/>
    <path d="M10.3728 30.9651H11.1128L12.3428 27.3851C12.4228 27.1351 12.4928 26.8451 12.4928 26.8451H12.5128C12.5128 26.8451 12.5828 27.1351 12.6728 27.3851L13.9028 30.9651H14.6428L16.3428 25.9351H15.6228L14.4028 29.6851C14.3228 29.9351 14.2528 30.2251 14.2528 30.2251H14.2328C14.2328 30.2251 14.1628 29.9251 14.0828 29.6851L12.8428 25.9551H12.1728L10.9328 29.6851C10.8528 29.9251 10.7828 30.2251 10.7828 30.2251H10.7628C10.7628 30.2251 10.6928 29.9251 10.6128 29.6851L9.39281 25.9351H8.67281L10.3728 30.9651Z" fill="white"/>
    <path d="M16.9206 29.5951C16.9206 30.5951 17.7906 31.0851 18.6306 31.0851C19.8906 31.0851 20.3106 29.9951 20.3106 29.9951H20.3306C20.3306 29.9951 20.3106 30.1651 20.3106 30.4151V30.9651H20.9606V27.7451C20.9606 26.4851 20.2906 25.8151 19.0806 25.8151C17.9506 25.8151 17.2906 26.3851 17.2906 26.3851L17.6106 26.9051C17.6106 26.9051 18.2006 26.4251 19.0306 26.4251C19.7506 26.4251 20.2806 26.7551 20.2806 27.7251V27.8551H20.0006C19.1306 27.8551 16.9206 27.8951 16.9206 29.5951ZM17.6206 29.5551C17.6206 28.4451 19.2006 28.4151 19.9906 28.4151H20.2806V28.6351C20.2806 29.5051 19.7006 30.5051 18.7406 30.5051C17.9906 30.5051 17.6206 30.0251 17.6206 29.5551Z" fill="white"/>
    <path d="M21.7759 32.7651C21.7759 32.7651 22.1359 33.0651 22.6559 33.0651C23.3259 33.0651 23.8459 32.6551 24.1059 32.0151L26.5859 25.9351H25.8459L24.3959 29.6051C24.2959 29.8551 24.2259 30.1351 24.2259 30.1351H24.2059C24.2059 30.1351 24.1259 29.8551 24.0259 29.6051L22.5459 25.9351H21.7959L23.8959 30.9251L23.5859 31.6351C23.3859 32.0951 23.0759 32.4551 22.6359 32.4551C22.3159 32.4551 22.0359 32.2251 22.0359 32.2251L21.7759 32.7651Z" fill="white"/>
    <path d="M27.1062 30.3551C27.1062 30.3551 27.7462 31.0851 28.9662 31.0851C29.9762 31.0851 30.6862 30.4951 30.6862 29.6751C30.6862 28.0151 27.9762 28.3151 27.9762 27.2051C27.9762 26.6451 28.4662 26.4251 28.9762 26.4251C29.8062 26.4251 30.2362 26.8851 30.2362 26.8851L30.5462 26.3651C30.5462 26.3651 30.0562 25.8151 28.9962 25.8151C28.0862 25.8151 27.2762 26.3051 27.2762 27.2051C27.2762 28.8451 29.9862 28.5751 29.9862 29.6751C29.9862 30.2051 29.5162 30.4751 28.9762 30.4751C28.0362 30.4751 27.4762 29.8651 27.4762 29.8651L27.1062 30.3551Z" fill="white"/>
    <path d="M34.8353 30.9651H35.5253V27.8151H38.1053V27.1951H35.5253V24.5551H38.5353V23.9351H34.8353V30.9651Z" fill="white"/>
    <path d="M39.752 24.7851H40.462V23.9351H39.752V24.7851ZM39.772 30.9651H40.452V25.9351H39.772V30.9651Z" fill="white"/>
    <path d="M42.2862 29.1351C42.2862 30.8151 43.4562 31.0051 44.0363 31.0051C44.2163 31.0051 44.3262 30.9851 44.3262 30.9851V30.3751C44.3262 30.3751 44.2362 30.3951 44.0962 30.3951C43.7162 30.3951 42.9662 30.2451 42.9662 29.0651V26.5651H44.2262V25.9951H42.9662V24.5451H42.2962V25.9951H41.6262V26.5651H42.2862V29.1351Z" fill="white"/>
    <path d="M45.0359 30.3551C45.0359 30.3551 45.6759 31.0851 46.8959 31.0851C47.9059 31.0851 48.6159 30.4951 48.6159 29.6751C48.6159 28.0151 45.9059 28.3151 45.9059 27.2051C45.9059 26.6451 46.3959 26.4251 46.9059 26.4251C47.7359 26.4251 48.1659 26.8851 48.1659 26.8851L48.4759 26.3651C48.4759 26.3651 47.9859 25.8151 46.9259 25.8151C46.0159 25.8151 45.2059 26.3051 45.2059 27.2051C45.2059 28.8451 47.9159 28.5751 47.9159 29.6751C47.9159 30.2051 47.4459 30.4751 46.9059 30.4751C45.9659 30.4751 45.4059 29.8651 45.4059 29.8651L45.0359 30.3551Z" fill="white"/>
    <path d="M49.8995 30.9651H50.6895V30.1651H49.8995V30.9651Z" fill="white"/>
    <path d="M55.2357 30.9651H55.9257V27.8151H58.5057V27.1951H55.9257V24.5551H58.9357V23.9351H55.2357V30.9651Z" fill="white"/>
    <path d="M59.8024 28.4251C59.8024 29.9451 60.9924 31.0851 62.4624 31.0851C63.9324 31.0851 65.1224 29.9451 65.1224 28.4251C65.1224 26.9351 63.9324 25.8151 62.4624 25.8151C60.9924 25.8151 59.8024 26.9351 59.8024 28.4251ZM60.5024 28.4251C60.5024 27.2851 61.3824 26.4351 62.4624 26.4351C63.5424 26.4351 64.4224 27.2851 64.4224 28.4251C64.4224 29.5951 63.5424 30.4751 62.4624 30.4751C61.3824 30.4751 60.5024 29.5951 60.5024 28.4251Z" fill="white"/>
    <path d="M66.3931 30.9651H67.0731V28.8451C67.0731 28.5251 67.1131 28.1851 67.2131 27.8651C67.4331 27.1251 67.9631 26.5651 68.6731 26.5651C68.8031 26.5651 68.9231 26.5851 68.9231 26.5851V25.9151C68.9231 25.9151 68.7931 25.8851 68.6531 25.8851C67.8631 25.8851 67.3031 26.4651 67.0631 27.2251H67.0431C67.0431 27.2251 67.0631 27.0451 67.0631 26.8251V25.9351H66.3931V30.9651Z" fill="white"/>
    <path d="M69.549 28.4551C69.549 30.0051 70.679 31.0851 72.179 31.0851C73.309 31.0851 74.039 30.3851 74.039 30.3851L73.729 29.8651C73.729 29.8651 73.119 30.4751 72.199 30.4751C71.159 30.4751 70.279 29.7751 70.249 28.4851H74.109C74.109 28.4851 74.129 28.2551 74.129 28.1351C74.129 26.8851 73.419 25.8151 72.029 25.8151C70.669 25.8151 69.549 26.8051 69.549 28.4551ZM70.279 27.9251C70.439 26.9151 71.169 26.3851 72.009 26.3851C72.759 26.3851 73.399 26.8751 73.439 27.9251H70.279Z" fill="white"/>
    <path d="M76.6663 30.9651H77.4063L79.3263 25.9351H78.6163L77.2263 29.6251C77.1263 29.8851 77.0463 30.2251 77.0463 30.2251H77.0263C77.0263 30.2251 76.9463 29.8751 76.8563 29.6251L75.4563 25.9351H74.7363L76.6663 30.9651Z" fill="white"/>
    <path d="M79.9298 28.4551C79.9298 30.0051 81.0598 31.0851 82.5598 31.0851C83.6898 31.0851 84.4198 30.3851 84.4198 30.3851L84.1098 29.8651C84.1098 29.8651 83.4998 30.4751 82.5798 30.4751C81.5398 30.4751 80.6598 29.7751 80.6298 28.4851H84.4898C84.4898 28.4851 84.5098 28.2551 84.5098 28.1351C84.5098 26.8851 83.7998 25.8151 82.4098 25.8151C81.0498 25.8151 79.9298 26.8051 79.9298 28.4551ZM80.6598 27.9251C80.8198 26.9151 81.5499 26.3851 82.3898 26.3851C83.1398 26.3851 83.7798 26.8751 83.8198 27.9251H80.6598Z" fill="white"/>
    <path d="M85.8072 30.9651H86.4872V28.8451C86.4872 28.5251 86.5272 28.1851 86.6272 27.8651C86.8472 27.1251 87.3772 26.5651 88.0872 26.5651C88.2172 26.5651 88.3372 26.5851 88.3372 26.5851V25.9151C88.3372 25.9151 88.2072 25.8851 88.0672 25.8851C87.2772 25.8851 86.7172 26.4651 86.4772 27.2251H86.4572C86.4572 27.2251 86.4772 27.0451 86.4772 26.8251V25.9351H85.8072V30.9651Z" fill="white"/>
    <path d="M92.2572 30.9651H92.9472V25.9051C92.9472 25.5351 92.8872 24.9551 92.8872 24.9551H92.9072C92.9072 24.9551 93.2472 25.5551 93.4872 25.9051L97.0772 30.9651H97.7472V23.9351H97.0572V28.9951C97.0572 29.3651 97.1172 29.9451 97.1172 29.9451H97.0972C97.0972 29.9451 96.7572 29.3451 96.5172 28.9951L92.9272 23.9351H92.2572V30.9651Z" fill="white"/>
    <path d="M99.2365 28.4551C99.2365 30.0051 100.366 31.0851 101.866 31.0851C102.996 31.0851 103.726 30.3851 103.726 30.3851L103.416 29.8651C103.416 29.8651 102.806 30.4751 101.886 30.4751C100.846 30.4751 99.9665 29.7751 99.9365 28.4851H103.796C103.796 28.4851 103.816 28.2551 103.816 28.1351C103.816 26.8851 103.106 25.8151 101.716 25.8151C100.356 25.8151 99.2365 26.8051 99.2365 28.4551ZM99.9665 27.9251C100.126 26.9151 100.856 26.3851 101.696 26.3851C102.446 26.3851 103.086 26.8751 103.126 27.9251H99.9665Z" fill="white"/>
    <path d="M106.164 30.9651H106.904L108.134 27.3851C108.214 27.1351 108.284 26.8451 108.284 26.8451H108.304C108.304 26.8451 108.374 27.1351 108.464 27.3851L109.694 30.9651H110.434L112.134 25.9351H111.414L110.194 29.6851C110.114 29.9351 110.044 30.2251 110.044 30.2251H110.024C110.024 30.2251 109.954 29.9251 109.874 29.6851L108.634 25.9551H107.964L106.724 29.6851C106.644 29.9251 106.574 30.2251 106.574 30.2251H106.554C106.554 30.2251 106.484 29.9251 106.404 29.6851L105.184 25.9351H104.464L106.164 30.9651Z" fill="white"/>
    <path d="M112.995 30.9651H113.785V30.1651H112.995V30.9651Z" fill="white"/>
    <path d="M118.956 28.3151H119.516L119.766 25.3451C119.776 25.1951 119.756 25.0551 119.756 25.0551H119.776L120.896 27.4951H121.356L122.476 25.0551H122.496C122.496 25.0551 122.476 25.1951 122.486 25.3451L122.736 28.3151H123.286L122.946 23.9351H122.426L121.276 26.4451C121.186 26.6351 121.136 26.8551 121.136 26.8551H121.116C121.116 26.8551 121.066 26.6351 120.976 26.4451L119.826 23.9351H119.306L118.956 28.3151ZM116.456 28.3151H117.026V24.4551H118.596V23.9351H114.896V24.4551H116.456V28.3151Z" fill="white"/>
    <defs>
        <clipPath id="clip0_678_37629">
            <rect width="102.902" height="16" fill="white" transform="translate(10.1919 0.935059)"/>
        </clipPath>
    </defs>
</svg>
