<?xml version="1.0" encoding="UTF-8"?>
<svg id="logo" xmlns="http://www.w3.org/2000/svg" viewBox="0 0 462.43 66.77">
    <defs>
        <style>.cls-1{fill:#009ca7;}.cls-2{fill:#009ba7;}</style>
    </defs>
    <g id="Layer_2-2">
        <g>
            <path class="cls-2"
                  d="M337.7,0V66.77h124.73V0h-124.73Zm40.39,56.94h-30.66l15.35-18.6,1.04-1.26c1.63-1.99,4.11-5.11,5.67-7.38,1.35-1.99,2.48-4.04,2.48-6.81,0-1.41-.34-2.79-1-3.98-.99-1.4-2.92-3.68-6.87-3.68-2.32,0-4.15,.78-5.51,2.04-.01,.01-.03,.03-.04,.04-.16,.15-.3,.3-.45,.46-.06,.07-.12,.13-.17,.2-.13,.15-.26,.31-.37,.47-.02,.02-.03,.04-.05,.06-.75,1.06-1.27,2.3-1.55,3.63-.07,.43-.12,.86-.12,1.3,0,2.81,1.97,4.07,1.97,4.07l-3.92,4.85s-4.45-2.28-4.45-8.73c0-8.17,6.62-14.78,14.78-14.78s14.78,6.62,14.78,14.78c0,.45-.02,.9-.06,1.34-.37,2.96-1.59,5.51-3.12,7.81-.06,.08-.11,.17-.17,.26-1.7,2.55-3.9,5.18-6.74,8.51l-7.38,8.72h17.66l-1.12,6.67Zm30.36-1.95c-3.76,3.69-8.3,4.83-13.13,4.83-2.77,0-6.03-.35-9.08-2.13-.71-.43-3.41-2.06-5.61-5.46l5.46-4.54c.14,.35,1.42,2.7,3.62,4.12,1.56,1.06,3.76,1.63,6.17,1.63,3.83,0,6.03-1.49,7.24-2.63,1.42-1.42,3.05-3.97,3.05-8.02s-1.35-6.24-2.84-7.66c-2.34-2.2-5.46-2.63-7.73-2.63-2.06,0-3.62,.28-5.54,.99-1.49,.57-2.84,1.21-4.19,2.13l4.19-23.91h22.42v6.67h-17.45l-1.36,8.17c.71-.07,3.35-.44,4.06-.44,3.97,0,8.02,1.35,10.93,4.19,2.27,2.2,4.61,5.96,4.61,12.14,0,5.18-1.63,9.37-4.83,12.56Zm40.88-18.71c-1.84,1.2-2.81,1.8-5.34,1.96-1.17-.07-1.96-.56-2.48-1.07-.6-.58-.93-1.3-1.04-2.11-.15-1.02-.14-2.05-.11-3.09,0-.09,0-.17,0-.28-.07,.01-1.17,1.33-1.68,1.99-.33,.43-2.96,3.96-3.25,4.32-.45,.56-1.58,1.77-2.54,2.4-1.43,.8-2.36-.11-2.51-1.71-.37-4.98,5.85-20.27,5.88-20.4-1.16,.25-6.08,1.65-7.89,2.24-5.41,14.33-6.35,20.4-7.25,28.25-.31,.89-1.14,.75-1.35,.48-1.67-2.57,1.45-15.53,2.87-19.36,.62-1.74,2.93-8.69,2.94-8.78,0,0-3.93,1.01-5.75,1.19-.59,.05-1.17,.14-1.34-.11-.17-.26-.31-.84-.22-1.2,.3-.72,8.33-2.59,8.33-2.59,.35-.71,.57-1.21,.76-1.71,.18-.46,.96-2.42,1.17-2.95,.13-.32,1.18-3.24,1.77-4.01,.23-.43,1.96-.35,1.87,.34-.09,.68-.39,1.7-1.07,3.37-.18,.49-1.41,3.55-1.6,4.29,.16-.01,1.54-.45,2.08-.59,.96-.26,4.81-1.52,5.77-1.79,0,0,1.78-5.09,3.72-8.22,.54-.15,1.14,.09,1.32,.33,.2,.28-.6,2.48-.78,3-.27,.77-8.78,24.58-8.75,26.84,.05,.09,5.2-7.17,7.08-8.32,.44-.27,1.77-.86,2.44,.86,.24,.7,.15,2.55,.14,3.33,0,.84-.25,2.73,1.08,3.13,3.23,.98,10.16-6.46,11.51-6.5,.87,.15-2.92,4.61-5.79,6.48Z"/>
            <g>
                <polygon class="cls-1"
                         points="88.56 9.77 99.82 9.77 111.78 44.48 111.92 44.48 123.85 9.77 134.43 9.77 117.47 56.91 105.4 56.91 88.56 9.77"/>
                <path class="cls-1"
                      d="M249.25,9.77h12.28l18.31,47.14h-11.44l-3.77-10.04h-19.43l-3.79,10.04h-10.7l18.54-47.14Zm5.68,11.17l-6.62,17.14h13.23l-6.61-17.14Z"/>
                <polygon class="cls-1" points="0 9.77 10.64 9.77 10.64 47.32 30.35 47.32 30.35 56.91 0 56.91 0 9.77"/>
                <g>
                    <path class="cls-1"
                          d="M59.5,9.09c-14.82,0-25.08,10.2-25.08,24.28s10.26,24.28,25.08,24.28,25.07-10.2,25.07-24.28-10.29-24.28-25.07-24.28m0,38.58c-8.98,0-14.2-6.27-14.2-14.31s5.21-14.31,14.2-14.31,14.2,6.27,14.2,14.31-5.25,14.31-14.2,14.31"/>
                    <polygon class="cls-1"
                             points="154.65 47.32 154.65 19.36 177.44 19.36 177.44 9.77 144.01 9.77 144.01 56.91 178.04 56.91 178.04 47.32 154.65 47.32"/>
                    <rect class="cls-1" x="163.34" y="27.38" width="9.93" height="11.66"/>
                    <path class="cls-1"
                          d="M219,21.31c-.84-.56-4.46-3.22-11.17-3.22-4.55,0-7.68,1.51-7.68,4.61s2.53,4.05,6.31,4.9c.92,.21,4.45,1.05,5.55,1.31,8.58,2.03,13.28,6.46,13.28,14.32,0,9.11-7.78,14.91-18.7,14.91s-16.93-4.42-18.44-5.56l4.99-8.29c.72,.56,5.24,4.36,12.74,4.36,6.2,0,8.71-2.21,8.71-4.94,0-2.86-2.66-4.35-6.79-5.31-1.21-.28-4.68-1.1-5.76-1.36-8.1-1.92-12.56-6.1-12.56-13.66s4.91-14.78,17.5-14.78c10.36,0,15.32,3.27,17.1,4.46l-5.1,8.25Z"/>
                    <path class="cls-1"
                          d="M320.05,42.84c-2.43,2.98-6.2,4.83-11.06,4.83-8.98,0-14.2-6.27-14.2-14.31s5.21-14.31,14.2-14.31c4.82,0,8.56,1.82,10.99,4.75l7.8-7.14c-4.45-4.75-10.99-7.58-18.79-7.58-14.82,0-25.08,10.2-25.08,24.28s10.26,24.28,25.08,24.28c7.86,0,14.45-2.88,18.9-7.7l-7.84-7.1Z"/>
                </g>
            </g>
            <path class="cls-2"
                  d="M331.85,9.08c1.79,0,3.22,1.46,3.22,3.29s-1.43,3.29-3.22,3.29-3.2-1.46-3.2-3.29,1.42-3.29,3.2-3.29Zm0,5.96c1.45,0,2.57-1.17,2.57-2.67s-1.12-2.67-2.57-2.67-2.54,1.17-2.54,2.67,1.11,2.67,2.54,2.67Zm-1.1-4.38h1.31c.64,0,1.07,.41,1.07,1.04,0,.52-.34,.83-.62,.9v.02s.04,.04,.12,.19l.65,1.25h-.7l-.63-1.31h-.55v1.31h-.64v-3.39Zm1.18,1.61c.33,0,.55-.22,.55-.58s-.22-.55-.55-.55h-.54v1.13h.54Z"/>
        </g>
    </g>
</svg>
